<?xml version="1.0" standalone="no"?>
<!DOCTYPE svg PUBLIC "-//W3C//DTD SVG 20010904//EN"
 "http://www.w3.org/TR/2001/REC-SVG-20010904/DTD/svg10.dtd">
<svg version="1.0" xmlns="http://www.w3.org/2000/svg"
 width="348.000000pt" height="192.000000pt" viewBox="0 0 348.000000 192.000000"
 preserveAspectRatio="xMidYMid meet">
<g transform="translate(0.000000,192.000000) scale(0.050000,-0.050000)"
fill="#000000" stroke="none">
<path d="M5093 3767 c-132 -40 -284 -191 -317 -316 -28 -106 -32 -107 -134
-42 -548 346 -1321 338 -1717 -18 -86 -78 -100 -84 -134 -59 -84 61 -610 168
-829 168 -120 0 -283 -64 -349 -137 -30 -33 -43 -34 -158 -10 -577 120 -908
68 -1064 -168 -196 -297 -410 -2419 -273 -2720 165 -366 1093 -551 1349 -269
30 34 41 34 237 1 693 -116 1036 15 1036 395 l0 73 65 -49 c630 -476 1449
-424 1940 123 l90 100 124 -140 c257 -288 356 -305 1051 -180 910 165 1006
295 763 1033 -133 403 -231 521 -472 571 -111 23 -118 28 -110 76 63 374 133
767 149 831 52 217 -8 427 -157 551 -161 133 -869 254 -1090 186z m567 -450
c312 -56 300 -37 233 -377 -110 -559 -191 -1207 -157 -1256 15 -22 57 -21 242
7 302 47 295 51 388 -241 86 -267 110 -398 77 -418 -36 -22 -885 -171 -976
-172 -96 0 -240 139 -422 410 l-95 140 2 270 c4 460 169 1583 244 1667 39 42
83 39 464 -30z m-1626 -118 c472 -110 666 -299 640 -623 -19 -225 -6 -216
-391 -266 -290 -37 -294 -36 -313 131 -45 388 -282 231 -391 -261 -126 -563
57 -987 319 -742 87 81 79 102 -37 102 l-100 0 -30 105 c-110 387 -97 424 161
466 557 90 573 85 679 -243 136 -417 107 -586 -147 -853 -386 -404 -1015 -410
-1424 -13 -468 454 -288 1763 295 2148 175 115 396 130 739 49z m-1843 -140
c229 -39 392 -84 403 -111 5 -15 -13 -142 -41 -283 -92 -461 -179 -1169 -213
-1738 -14 -224 -29 -341 -45 -352 -70 -49 -688 43 -752 112 -44 48 -174 453
-243 763 -25 110 -52 208 -61 217 -18 20 -37 -253 -56 -787 l-13 -390 -86 -6
c-105 -8 -475 65 -537 106 -100 66 -71 748 74 1750 103 710 90 695 519 640
443 -57 425 -40 499 -484 106 -626 123 -650 149 -213 17 302 80 728 112 767
29 35 125 38 291 9z"/>
</g>
</svg>
