<?xml version="1.0" standalone="no"?>
<!DOCTYPE svg PUBLIC "-//W3C//DTD SVG 20010904//EN"
 "http://www.w3.org/TR/2001/REC-SVG-20010904/DTD/svg10.dtd">
<svg version="1.0" xmlns="http://www.w3.org/2000/svg"
 width="348.000000pt" height="192.000000pt" viewBox="0 0 348.000000 192.000000"
 preserveAspectRatio="xMidYMid meet">
<g transform="translate(0.000000,192.000000) scale(0.100000,-0.100000)"
fill="#000000" stroke="none">
<path d="M2559 1887 c-82 -23 -159 -99 -175 -170 -10 -48 -11 -48 -57 -18 -55
37 -153 76 -252 102 -101 27 -295 37 -374 19 -78 -17 -172 -66 -235 -122 -47
-42 -55 -46 -72 -34 -46 32 -306 86 -413 86 -61 0 -118 -22 -166 -63 -30 -25
-32 -25 -90 -11 -104 24 -310 39 -366 26 -91 -21 -158 -79 -191 -167 -31 -80
-92 -490 -119 -795 -6 -74 -12 -207 -13 -295 -1 -159 -1 -160 29 -220 51 -102
105 -131 321 -176 139 -28 232 -24 298 15 25 14 49 33 53 41 8 13 17 13 78 0
39 -7 119 -19 178 -25 169 -18 250 1 315 76 39 43 62 99 62 147 l0 27 71 -47
c87 -56 208 -107 308 -129 85 -19 225 -15 302 10 110 34 246 122 323 207 l46
51 23 -28 c145 -188 197 -200 562 -134 127 22 249 47 272 55 61 20 106 57 138
116 25 47 27 58 23 128 -6 86 -82 334 -121 392 -35 53 -100 96 -164 110 -32 7
-59 13 -60 14 -4 2 56 353 72 423 22 94 19 150 -11 210 -49 99 -101 125 -317
161 -171 29 -226 32 -278 18z m201 -43 c95 -21 206 -41 213 -37 4 2 7 -1 7 -7
0 -6 3 -9 8 -7 15 9 87 -39 109 -73 12 -19 27 -40 33 -47 5 -7 7 -20 3 -29 -4
-11 -3 -15 5 -10 14 9 9 -31 -24 -193 -23 -113 -35 -185 -49 -296 -3 -22 -8
-46 -10 -52 -2 -7 1 -13 7 -13 6 0 9 -3 5 -6 -12 -13 30 -42 83 -57 30 -9 58
-16 63 -17 10 0 38 -29 68 -70 21 -28 91 -224 104 -290 2 -8 4 -15 5 -15 1 0
4 -11 6 -25 7 -42 4 -100 -8 -128 -13 -30 -15 -37 -17 -52 0 -5 -5 -9 -9 -7
-5 1 -21 -11 -36 -28 -15 -16 -24 -24 -21 -16 6 9 1 9 -17 -3 -20 -13 -63 -24
-193 -50 -11 -2 -51 -9 -90 -15 -38 -6 -106 -18 -150 -26 -152 -28 -223 -14
-304 57 -23 20 -43 40 -44 45 -3 16 -32 45 -59 59 -34 18 -54 10 -99 -35 -59
-60 -107 -101 -118 -101 -6 0 -11 -4 -11 -9 0 -5 -8 -11 -17 -15 -25 -8 -57
-29 -65 -43 -5 -6 -18 -9 -30 -5 -12 3 -19 1 -15 -4 10 -17 -114 -39 -218 -38
-62 0 -125 7 -165 18 -71 19 -212 84 -275 127 -37 25 -42 26 -67 13 -19 -10
-30 -27 -38 -57 -6 -23 -18 -56 -26 -72 -35 -67 -144 -112 -246 -101 -29 3
-82 9 -118 12 -36 4 -74 10 -85 13 -11 4 -32 7 -47 6 -15 0 -24 3 -22 7 11 17
-49 -2 -79 -25 -18 -13 -54 -33 -82 -44 -60 -25 -99 -23 -257 13 -62 14 -123
27 -135 28 -12 0 -19 3 -17 5 2 3 -14 14 -37 26 -33 16 -49 34 -73 80 -29 55
-31 65 -32 179 -2 127 15 363 42 581 8 72 17 150 20 175 2 25 7 59 11 75 4 17
7 39 8 50 1 11 4 27 7 35 3 8 13 55 22 105 9 49 20 91 24 95 4 3 8 11 10 18 4
23 45 72 59 72 7 0 13 4 13 9 0 19 77 35 162 34 72 -1 136 -7 273 -27 6 -1 16
-5 23 -9 6 -5 18 -5 25 0 6 4 18 8 26 10 8 1 27 11 42 22 16 12 32 21 38 21 5
0 11 6 13 13 5 13 136 17 218 5 65 -9 215 -45 255 -62 19 -8 44 -13 56 -11 21
4 31 12 89 63 13 12 30 22 36 22 5 0 20 9 32 20 12 12 22 19 22 16 0 -3 21 4
48 15 26 12 74 25 107 30 76 11 240 -6 318 -32 32 -10 65 -21 75 -23 29 -5 54
-16 132 -55 94 -48 106 -45 155 47 26 50 46 75 71 88 19 10 34 21 34 24 0 3
17 7 37 8 21 2 39 5 42 7 5 5 105 -3 141 -11z"/>
<path d="M2587 1710 c-36 -29 -43 -44 -63 -136 -15 -71 -20 -106 -29 -184 -1
-14 -3 -25 -5 -25 -1 0 -3 -11 -5 -25 -1 -14 -12 -92 -23 -175 -27 -195 -39
-445 -23 -445 7 0 10 -4 6 -9 -6 -11 33 -91 45 -91 5 0 10 -10 12 -22 2 -13 9
-22 16 -20 8 1 11 -2 8 -7 -4 -5 8 -23 25 -40 17 -17 27 -31 22 -31 -18 0 111
-108 135 -113 28 -5 114 6 172 23 19 5 48 10 64 10 16 0 43 4 60 10 17 5 74
16 126 24 83 13 98 18 118 43 18 22 22 37 19 68 -6 47 -24 119 -36 143 -5 9
-15 38 -21 64 -7 26 -16 45 -21 42 -5 -3 -7 1 -4 8 7 18 -40 66 -71 74 -23 6
-68 2 -168 -13 l-39 -6 7 99 c4 54 9 113 11 129 10 80 27 194 35 225 4 19 18
90 31 158 20 107 21 124 9 132 -8 6 -10 10 -5 10 6 0 -3 11 -19 25 -16 14 -30
25 -31 25 0 0 -50 9 -110 20 -182 33 -216 35 -248 10z m213 -46 c80 -14 152
-32 159 -39 13 -13 11 -36 -17 -182 -55 -287 -91 -577 -74 -601 8 -11 28 -11
120 4 152 24 148 27 196 -127 21 -68 42 -137 47 -153 7 -22 6 -34 -4 -43 -19
-19 -494 -104 -522 -93 -29 11 -123 116 -181 203 -42 63 -49 79 -52 134 -6 83
13 282 49 537 47 330 63 386 113 386 12 0 87 -12 166 -26z"/>
<path d="M1729 1652 c-36 -10 -78 -26 -94 -37 -15 -11 -40 -29 -56 -40 -30
-21 -109 -118 -109 -133 0 -5 -6 -15 -14 -22 -8 -6 -27 -44 -42 -83 -15 -40
-32 -77 -37 -84 -5 -7 -6 -17 -2 -22 3 -6 -1 -23 -8 -38 -24 -46 -37 -152 -37
-294 0 -158 8 -196 73 -337 16 -33 95 -119 126 -136 14 -7 56 -30 93 -50 37
-19 74 -33 83 -30 8 3 15 1 15 -5 0 -6 7 -8 17 -4 12 5 14 3 8 -7 -5 -9 -4
-11 4 -6 6 4 17 3 24 -2 21 -16 102 -22 168 -11 73 11 189 65 237 109 18 16
34 28 36 27 2 -1 15 12 27 28 13 17 29 34 36 38 8 5 11 12 8 18 -4 5 -1 9 4 9
6 0 11 5 11 10 0 6 9 23 21 39 11 15 21 34 23 42 1 8 8 24 14 37 7 12 10 27 7
32 -3 6 -2 10 3 10 13 0 4 78 -19 155 -41 140 -50 163 -79 209 -27 42 -28 47
-12 53 67 24 82 34 101 72 24 46 26 55 9 45 -7 -5 -8 -3 -2 7 12 19 13 149 2
149 -6 0 -8 6 -5 13 8 24 -89 137 -118 137 -7 0 -20 9 -30 20 -10 11 -22 17
-27 14 -5 -3 -17 1 -26 9 -17 15 -41 24 -84 32 -13 3 -34 9 -48 14 -31 12
-158 31 -202 30 -18 0 -63 -8 -99 -17z m289 -52 c154 -37 277 -111 309 -187
24 -59 11 -205 -21 -229 -17 -12 -294 -50 -302 -41 -4 3 -12 38 -20 78 -21
113 -59 138 -112 73 -63 -77 -106 -253 -100 -408 6 -149 45 -213 121 -199 29
6 87 54 87 71 0 6 -23 12 -51 14 l-52 3 -13 45 c-7 25 -18 78 -25 119 -9 61
-8 76 3 88 17 16 153 40 283 49 77 6 93 4 108 -10 24 -25 88 -230 94 -306 5
-58 2 -73 -23 -126 -41 -84 -158 -200 -249 -244 -132 -64 -278 -51 -450 38
-169 88 -236 225 -235 479 0 309 114 573 293 677 84 50 193 55 355 16z m-72
-388 c4 -26 15 -59 25 -73 16 -23 17 -28 4 -39 -8 -6 -18 -9 -23 -6 -5 3 -34
-1 -64 -8 l-56 -13 4 30 c5 46 25 98 51 140 30 48 49 38 59 -31z m-77 -471
c15 -23 15 -24 -6 -10 -12 7 -20 16 -17 20 2 4 -1 10 -6 12 -6 3 -5 4 1 3 7
-1 19 -13 28 -25z"/>
<path d="M930 1554 c-28 -24 -34 -41 -45 -119 -13 -102 -18 -130 -20 -133 -1
-1 -12 32 -24 73 -18 58 -30 81 -53 98 -16 12 -33 22 -36 23 -4 0 -14 3 -22 6
-35 14 -142 29 -236 35 -100 6 -101 6 -133 -23 -18 -16 -33 -36 -34 -44 -2 -8
-5 -19 -9 -25 -3 -5 -11 -44 -18 -85 -7 -41 -20 -124 -31 -184 -10 -60 -16
-113 -13 -118 3 -5 1 -23 -5 -41 -17 -53 -43 -371 -45 -545 l-1 -164 27 -23
c15 -13 24 -26 20 -31 -4 -4 -2 -4 5 0 6 3 15 1 18 -5 4 -5 13 -8 21 -5 8 3
14 2 14 -2 0 -12 117 -35 195 -38 56 -2 76 2 95 16 24 18 25 25 29 142 3 124
12 168 31 168 6 0 9 -4 6 -9 -6 -9 8 -62 23 -91 5 -9 12 -30 16 -48 3 -18 11
-32 17 -32 6 0 8 -3 5 -7 -4 -3 5 -17 19 -30 23 -21 37 -27 57 -24 4 0 7 -4 7
-9 0 -5 3 -9 8 -8 4 1 23 -2 42 -5 131 -26 267 -30 301 -10 15 9 26 20 23 25
-3 4 -1 8 4 8 5 0 9 6 10 13 1 6 6 80 12 162 5 83 15 197 21 255 6 58 12 128
15 155 2 28 9 74 15 102 6 29 7 62 4 74 -5 16 -4 19 5 14 8 -5 11 -4 7 1 -3 6
8 86 25 179 37 205 39 227 24 246 -33 45 -133 72 -303 84 -56 3 -66 1 -93 -21z
m269 -43 c46 -11 88 -24 94 -30 8 -8 3 -52 -17 -153 -38 -198 -72 -456 -91
-693 -9 -110 -19 -234 -23 -275 l-7 -75 -45 -3 c-100 -7 -310 31 -339 62 -22
24 -88 233 -122 386 -12 58 -26 109 -29 113 -9 11 -18 -122 -26 -378 -7 -234
-8 -237 -72 -228 -70 9 -225 44 -243 54 -38 20 -42 45 -35 213 16 359 94 935
133 979 11 12 31 17 67 17 86 -1 266 -28 304 -47 41 -20 38 -7 92 -318 35
-204 45 -205 54 -5 8 155 39 374 57 396 11 14 26 15 89 10 41 -4 113 -15 159
-25z"/>
</g>
</svg>
